<?xml version="1.0" encoding="UTF-8" standalone="no"?>
<svg
   xmlns:dc="http://purl.org/dc/elements/1.1/"
   xmlns:cc="http://creativecommons.org/ns#"
   xmlns:rdf="http://www.w3.org/1999/02/22-rdf-syntax-ns#"
   xmlns:svg="http://www.w3.org/2000/svg"
   xmlns="http://www.w3.org/2000/svg"
   viewBox="0 0 933.33331 386.66666"
   height="386.66666"
   width="933.33331"
   xml:space="preserve"
   id="svg2"
   version="1.1"><metadata
     id="metadata8"><rdf:RDF><cc:Work
         rdf:about=""><dc:format>image/svg+xml</dc:format><dc:type
           rdf:resource="http://purl.org/dc/dcmitype/StillImage" /></cc:Work></rdf:RDF></metadata><defs
     id="defs6"><clipPath
       id="clipPath18"
       clipPathUnits="userSpaceOnUse"><path
         id="path16"
         d="M 0,290 H 700 V 0 H 0 Z" /></clipPath></defs><g
     transform="matrix(1.3333333,0,0,-1.3333333,0,386.66667)"
     id="g10"><g
       id="g12"><g
         clip-path="url(#clipPath18)"
         id="g14"><g
           transform="translate(671.998,96.917)"
           id="g20"><path
             id="path22"
             style="fill:#3b78c5;fill-opacity:1;fill-rule:nonzero;stroke:none"
             d="m 0,0 c -0.85,-1.505 -1.963,-2.617 -3.467,-3.402 -1.505,-0.916 -3.075,-1.309 -4.711,-1.374 -1.699,0.065 -3.27,0.458 -4.775,1.374 -1.505,0.785 -2.682,1.897 -3.532,3.402 -0.852,1.505 -1.244,3.141 -1.244,4.775 0,1.702 0.392,3.336 1.244,4.841 0.916,1.505 2.093,2.617 3.663,3.402 1.44,0.85 3.009,1.309 4.644,1.309 1.636,0 3.206,-0.459 4.646,-1.309 C -2.027,12.233 -0.85,11.121 0,9.616 0.852,8.111 1.243,6.477 1.243,4.775 1.243,3.141 0.852,1.505 0,0 m 2.028,10.663 c -1.112,1.963 -2.55,3.336 -4.448,4.383 -1.832,1.047 -3.794,1.57 -5.758,1.57 -2.027,0 -3.989,-0.523 -5.821,-1.57 -1.962,-1.047 -3.402,-2.42 -4.448,-4.383 -1.113,-1.832 -1.637,-3.794 -1.637,-5.888 0,-2.028 0.524,-3.991 1.637,-5.887 0.981,-1.832 2.42,-3.271 4.316,-4.383 1.899,-1.048 3.861,-1.57 5.953,-1.637 2.03,0.067 3.992,0.589 5.824,1.637 1.897,1.112 3.336,2.551 4.382,4.383 1.048,1.896 1.571,3.859 1.571,5.887 0,2.094 -0.523,4.056 -1.571,5.888" /></g><g
           transform="translate(664.8018,102.6738)"
           id="g24"><path
             id="path26"
             style="fill:#3b78c5;fill-opacity:1;fill-rule:nonzero;stroke:none"
             d="m 0,0 c -0.393,-0.131 -1.309,-0.196 -2.813,-0.196 h -0.981 v 3.467 h 0.981 C -1.373,3.271 -0.457,3.205 0,3.01 0.327,2.944 0.654,2.813 0.852,2.486 1.048,2.29 1.179,1.962 1.179,1.569 1.179,1.242 1.048,0.916 0.852,0.589 0.654,0.327 0.327,0.131 0,0 m 2.16,-3.271 c -0.327,0.523 -0.59,0.85 -0.785,0.981 -0.263,0.196 -0.523,0.393 -0.917,0.523 1.048,0.131 1.832,0.524 2.421,1.114 0.59,0.653 0.85,1.437 0.85,2.354 0,0.653 -0.131,1.243 -0.392,1.766 C 2.944,4.056 2.553,4.448 2.16,4.71 1.636,4.972 0.982,5.168 0.197,5.233 -0.13,5.299 -1.438,5.299 -3.794,5.299 H -6.411 V -7.328 h 2.617 v 5.169 h 0.589 c 0.72,0.065 1.374,-0.131 1.832,-0.524 0.458,-0.327 1.047,-1.242 1.766,-2.616 L 1.439,-7.328 H 4.58 l -1.505,2.553 c -0.522,0.85 -0.85,1.373 -0.915,1.504" /></g><g
           transform="translate(557.9062,107.9072)"
           id="g28"><path
             id="path30"
             style="fill:#3b78c5;fill-opacity:1;fill-rule:nonzero;stroke:none"
             d="m 0,0 c 11.971,12.103 17.924,26.757 17.924,43.832 v 62.477 H 1.438 c -3.859,-0.263 -7.13,-1.833 -9.812,-4.777 -2.944,-2.682 -4.514,-5.953 -4.776,-9.813 V 43.832 c 0.066,-8.375 -3.009,-15.636 -9.028,-21.982 -6.085,-5.822 -13.412,-8.831 -21.981,-9.028 v -30.747 c 13.673,0 25.906,3.794 36.569,11.514 C -4.973,-4.514 -2.421,-2.355 0,0" /></g><g
           transform="translate(615.999,94.3662)"
           id="g32"><path
             id="path34"
             style="fill:#3b78c5;fill-opacity:1;fill-rule:nonzero;stroke:none"
             d="M 0,0 C 2.027,2.093 3.467,4.448 4.187,7.13 4.448,7.98 4.579,8.896 4.71,9.813 V 57.7 c 0,8.57 3.01,15.897 9.159,21.916 6.084,6.149 13.411,9.159 21.916,9.159 v 31.075 c -17.075,0 -31.729,-6.085 -43.897,-18.253 -2.945,-2.879 -5.495,-5.888 -7.72,-9.094 -7,-10.074 -10.532,-21.654 -10.532,-34.803 V -4.384 H -9.421 C -5.823,-4.188 -2.682,-2.684 0,0" /></g><g
           transform="translate(468.8691,101.4961)"
           id="g36"><path
             id="path38"
             style="fill:#3b78c5;fill-opacity:1;fill-rule:nonzero;stroke:none"
             d="M 0,0 C 10.598,-7.72 22.7,-11.514 36.438,-11.514 V 19.233 C 27.868,19.43 20.541,22.439 14.522,28.261 8.438,34.607 5.495,41.868 5.757,50.243 V 98.13 c -0.458,3.86 -2.028,7.131 -4.777,9.813 -2.877,2.944 -6.28,4.514 -10.139,4.777 H -25.317 V 50.243 C -25.58,33.168 -19.627,18.514 -7.458,6.411 -5.037,4.056 -2.552,1.897 0,0" /></g><g
           transform="translate(323.374,94.3662)"
           id="g40"><path
             id="path42"
             style="fill:#3b78c5;fill-opacity:1;fill-rule:nonzero;stroke:none"
             d="M 0,0 C 2.027,2.093 3.336,4.448 3.991,7.13 4.187,7.98 4.317,8.896 4.383,9.813 V 57.7 c -0.066,8.57 3.01,15.897 9.093,21.916 5.169,5.233 11.253,8.242 18.253,8.962 1.243,0.131 2.42,0.197 3.664,0.197 v 31.075 c -17.075,0 -31.73,-6.085 -43.898,-18.253 -2.878,-2.813 -5.364,-5.757 -7.589,-8.832 C -23.159,82.625 -26.691,70.98 -26.691,57.7 V -4.384 H -9.748 C -6.215,-4.188 -2.944,-2.684 0,0" /></g><g
           transform="translate(389.1865,173.9819)"
           id="g44"><path
             id="path46"
             style="fill:#3b78c5;fill-opacity:1;fill-rule:nonzero;stroke:none"
             d="m 0,0 c 6.084,-6.019 9.094,-13.346 9.094,-21.916 v -47.887 c 0.065,-0.916 0.196,-1.832 0.392,-2.683 0.655,-2.681 1.963,-5.037 3.992,-7.13 2.747,-2.683 6.084,-4.188 10.139,-4.384 h 16.616 v 62.084 c -0.065,3.794 -0.327,7.393 -0.915,10.86 C 37.29,1.635 31.401,12.626 21.917,21.981 9.748,34.149 -4.907,40.234 -22.046,40.234 V 9.159 c 8.374,0 15.569,-2.879 21.588,-8.636 C -0.326,0.327 -0.132,0.196 0,0" /></g><g
           transform="translate(248.6641,181.6357)"
           id="g48"><path
             id="path50"
             style="fill:#3b78c5;fill-opacity:1;fill-rule:nonzero;stroke:none"
             d="m 0,0 c -5.43,16.944 -14.981,32.187 -28.523,45.729 -22.767,22.701 -50.112,34.084 -82.234,34.084 -32.317,0 -59.728,-11.383 -82.168,-34.084 -12.495,-12.234 -21.523,-25.972 -27.018,-41.084 -1.047,-2.683 -1.897,-5.43 -2.682,-8.243 l -1.636,-10.86 c 0.262,-8.504 3.075,-15.963 8.439,-22.308 6.411,-8.047 14.328,-12.43 23.683,-13.28 h 95.055 l -33.625,-33.691 20.411,-20.411 68.167,68.56 -68.167,68.495 -20.411,-20.411 33.625,-33.692 H -183.7 c -2.944,0.261 -5.365,1.308 -7.262,3.205 -2.094,2.16 -3.14,4.842 -3.14,8.048 l 0.393,3.14 0.327,1.242 c 0.785,2.094 1.57,4.122 2.486,6.085 2.42,5.233 5.298,10.14 8.832,14.785 l 9.158,10.794 c 17.14,17.074 37.813,25.645 62.149,25.579 24.075,0.066 44.682,-8.505 61.822,-25.579 10.729,-10.729 18.122,-22.832 22.177,-36.439 2.487,-8.047 3.796,-16.617 3.861,-25.71 -0.262,-24.075 -8.897,-44.683 -26.038,-61.758 -17.14,-17.139 -37.747,-25.775 -61.822,-26.102 -24.336,0.327 -45.009,8.963 -62.149,26.102 -7.981,7.982 -14.131,16.813 -18.383,26.495 l -21.654,-22.11 c 5.037,-9.094 11.71,-17.664 20.018,-25.646 22.44,-22.701 49.851,-34.083 82.168,-34.019 32.122,-0.064 59.467,11.318 82.234,34.019 11.121,11.056 19.495,23.225 25.187,36.571 0.719,1.7 1.439,3.466 2.027,5.233 0.458,1.309 0.916,2.552 1.309,3.794 3.729,11.514 5.561,23.683 5.561,36.701 0,12.299 -1.636,23.879 -4.907,34.803 C 0.458,-1.309 0.262,-0.654 0,0" /></g><g
           transform="translate(298.2695,51.5674)"
           id="g52"><path
             id="path54"
             style="fill:#3b78c5;fill-opacity:1;fill-rule:nonzero;stroke:none"
             d="m 0,0 h 8.047 c 6.036,0 10.946,-4.781 10.946,-10.657 0,-5.861 -4.893,-10.629 -10.908,-10.629 H 0 Z M 8.085,1.951 H -1.984 V -23.232 H 8.047 c 7.148,0 12.963,5.641 12.963,12.575 0,7.07 -5.677,12.608 -12.925,12.608" /></g><path
           id="path56"
           style="fill:#3b78c5;fill-opacity:1;fill-rule:nonzero;stroke:none"
           d="m 324.666,28.335 h 1.984 v 25.184 h -1.984 z" /><g
           transform="translate(345.0894,51.6377)"
           id="g58"><path
             id="path60"
             style="fill:#3b78c5;fill-opacity:1;fill-rule:nonzero;stroke:none"
             d="m 0,0 c 2.865,0 5.576,-1.019 7.634,-2.866 l 0.193,-0.173 1.246,1.483 -0.187,0.161 C 6.417,0.739 3.261,1.914 0,1.914 c -7.205,0 -13.067,-5.656 -13.067,-12.608 0,-6.971 5.798,-12.642 12.925,-12.642 2.612,0 5.2,0.914 7.343,2.585 v -2.552 h 1.734 v 12.716 H 7.092 v -7.912 c -1.963,-1.89 -4.491,-2.929 -7.13,-2.929 -6.092,0 -11.049,4.816 -11.049,10.734 C -11.087,-4.798 -6.113,0 0,0" /></g><path
           id="path62"
           style="fill:#3b78c5;fill-opacity:1;fill-rule:nonzero;stroke:none"
           d="m 361.42,28.335 h 1.984 v 25.184 h -1.984 z" /><g
           transform="translate(367.5752,51.5674)"
           id="g64"><path
             id="path66"
             style="fill:#3b78c5;fill-opacity:1;fill-rule:nonzero;stroke:none"
             d="m 0,0 h 8.331 v -23.232 h 1.984 V 0 H 18.65 V 1.951 H 0 Z" /></g><g
           transform="translate(408.3389,43.1699)"
           id="g68"><path
             id="path70"
             style="fill:#3b78c5;fill-opacity:1;fill-rule:nonzero;stroke:none"
             d="M 0,0 V -5.263 H -16.554 V 0 c 0,5.281 3.088,8.435 8.26,8.435 C -3.101,8.435 0,5.281 0,0 M -8.294,10.382 C -14.709,10.382 -18.538,6.501 -18.538,0 v -14.835 h 1.984 v 7.593 H 0 v -7.593 H 1.984 V 0 c 0,6.501 -3.842,10.382 -10.278,10.382" /></g><g
           transform="translate(419.6699,53.5186)"
           id="g72"><path
             id="path74"
             style="fill:#3b78c5;fill-opacity:1;fill-rule:nonzero;stroke:none"
             d="m 0,0 h -1.984 v -25.184 h 12.966 v 1.947 l -10.982,0 z" /></g><g
           transform="translate(458.21,34.3975)"
           id="g76"><path
             id="path78"
             style="fill:#3b78c5;fill-opacity:1;fill-rule:nonzero;stroke:none"
             d="m 0,0 -9.699,18.984 -0.07,0.137 H -12.22 V -6.062 h 1.914 v 21.843 l 9.799,-19.158 h 0.979 l 9.734,19.155 0.031,-21.59 v -0.25 h 1.914 V 19.121 H 9.7 Z" /></g><g
           transform="translate(496.2988,43.1699)"
           id="g80"><path
             id="path82"
             style="fill:#3b78c5;fill-opacity:1;fill-rule:nonzero;stroke:none"
             d="M 0,0 V -5.263 H -16.553 V 0 c 0,5.281 3.088,8.435 8.26,8.435 C -3.101,8.435 0,5.281 0,0 M -8.293,10.382 C -14.708,10.382 -18.538,6.501 -18.538,0 v -14.835 h 1.985 v 7.593 H 0 v -7.593 H 1.984 V 0 c 0,6.501 -3.841,10.382 -10.277,10.382" /></g><g
           transform="translate(522.4912,45.1084)"
           id="g84"><path
             id="path86"
             style="fill:#3b78c5;fill-opacity:1;fill-rule:nonzero;stroke:none"
             d="m 0,0 c 0,-4.257 -2.784,-6.601 -7.84,-6.601 h -7.021 V 6.459 H -7.84 C -2.784,6.459 0,4.165 0,0 m 1.946,0.038 c 0,5.32 -3.579,8.372 -9.819,8.372 h -8.973 v -25.183 h 1.985 v 8.225 h 6.988 c 0.746,0 1.376,0.039 1.969,0.122 l 5.736,-8.24 0.074,-0.107 h 2.382 l -6.254,8.715 c 3.817,1.102 5.912,3.963 5.912,8.096" /></g><g
           transform="translate(550.0596,53.5186)"
           id="g88"><path
             id="path90"
             style="fill:#3b78c5;fill-opacity:1;fill-rule:nonzero;stroke:none"
             d="m 0,0 h -2.513 l -14.4,-15.504 V 0 h -1.985 v -25.184 h 1.985 v 6.79 l 5.174,5.648 9.958,-12.438 h 2.508 l -11.029,13.972 z" /></g><g
           transform="translate(557.2148,40.2344)"
           id="g92"><path
             id="path94"
             style="fill:#3b78c5;fill-opacity:1;fill-rule:nonzero;stroke:none"
             d="M 0,0 H 12.855 V 1.984 H 0 v 9.349 h 14.443 v 1.951 H -1.984 v -25.183 h 16.886 v 1.946 H 0 Z" /></g><g
           transform="translate(574.2842,51.5674)"
           id="g96"><path
             id="path98"
             style="fill:#3b78c5;fill-opacity:1;fill-rule:nonzero;stroke:none"
             d="m 0,0 h 8.33 v -23.232 h 1.984 V 0 h 8.335 V 1.951 H 0 Z" /></g><path
           id="path100"
           style="fill:#3b78c5;fill-opacity:1;fill-rule:nonzero;stroke:none"
           d="m 597.109,28.335 h 1.984 v 25.184 h -1.984 z" /><g
           transform="translate(625.2969,31.6064)"
           id="g102"><path
             id="path104"
             style="fill:#3b78c5;fill-opacity:1;fill-rule:nonzero;stroke:none"
             d="m 0,0 -16.04,21.811 -0.074,0.101 h -2.108 V -3.271 h 1.986 v 21.91 L -0.235,-3.169 -0.161,-3.271 H 1.946 V 21.912 H 0 Z" /></g><g
           transform="translate(645.7012,51.6377)"
           id="g106"><path
             id="path108"
             style="fill:#3b78c5;fill-opacity:1;fill-rule:nonzero;stroke:none"
             d="m 0,0 c 2.865,0 5.576,-1.018 7.634,-2.866 l 0.192,-0.173 1.246,1.483 -0.186,0.161 C 6.416,0.739 3.26,1.914 0,1.914 c -7.205,0 -13.067,-5.656 -13.067,-12.608 0,-6.971 5.798,-12.642 12.925,-12.642 2.612,0 5.2,0.914 7.343,2.585 v -2.552 h 1.734 v 12.716 H 7.092 v -7.912 c -1.963,-1.89 -4.491,-2.929 -7.13,-2.929 -6.093,0 -11.049,4.816 -11.049,10.734 C -11.087,-4.798 -6.113,0 0,0" /></g><path
           id="path110"
           style="fill:#3b78c5;fill-opacity:1;fill-rule:nonzero;stroke:none"
           d="m 296.535,70.164 h 358.627 v 1.32 H 296.535 Z" /></g></g></g></svg>